<?xml version="1.0" standalone="no"?>
<!DOCTYPE svg PUBLIC "-//W3C//DTD SVG 20010904//EN"
 "http://www.w3.org/TR/2001/REC-SVG-20010904/DTD/svg10.dtd">
<svg version="1.0" xmlns="http://www.w3.org/2000/svg"
 width="200.000000pt" height="200.000000pt" viewBox="0 0 200.000000 200.000000"
 preserveAspectRatio="xMidYMid meet">
<metadata>
Created by potrace 1.10, written by Peter Selinger 2001-2011
</metadata>
<g transform="translate(0.000000,200.000000) scale(0.100000,-0.100000)"
fill="#000000" stroke="none">
<path d="M929 1941 c-127 -107 -289 -187 -466 -232 l-93 -24 -2 -115 c-6 -316
14 -578 57 -725 69 -235 212 -399 468 -534 43 -23 88 -41 100 -41 53 0 284
155 387 260 116 118 174 230 212 404 16 76 20 147 25 426 l6 335 -89 18 c-169
35 -341 117 -473 228 l-66 55 -66 -55z m136 -34 c121 -100 266 -169 457 -215
l73 -18 3 -205 c4 -251 -11 -468 -38 -574 -60 -232 -206 -404 -466 -549 l-102
-57 -78 39 c-273 138 -416 309 -479 577 -35 146 -45 265 -45 529 l0 235 58 11
c158 33 337 117 460 217 42 34 80 62 85 62 4 1 36 -23 72 -52z"/>
<path d="M945 1904 c-68 -60 -195 -136 -305 -182 -22 -9 -22 -11 -5 -11 40 -2
269 137 343 207 19 17 25 15 53 -14 35 -37 143 -111 211 -144 57 -28 214 -82
273 -95 17 -3 38 -8 49 -12 11 -3 16 -1 12 5 -3 5 -26 13 -51 16 -145 22 -365
128 -479 231 -22 19 -44 35 -50 35 -6 -1 -29 -17 -51 -36z"/>
<path d="M944 1702 c-18 -15 -51 -42 -74 -61 l-43 -35 -34 38 -34 37 -65 -60
c-35 -34 -78 -71 -94 -83 -36 -26 -39 -42 -7 -35 12 3 205 7 430 9 224 2 407
5 407 8 0 3 -12 12 -28 21 -15 8 -61 43 -103 77 -43 34 -83 62 -91 62 -7 0
-30 -11 -50 -25 -20 -14 -40 -25 -44 -25 -3 0 -32 23 -64 50 -32 28 -62 50
-66 50 -5 0 -23 -13 -40 -28z m82 -43 c19 -11 34 -25 34 -30 0 -5 6 -9 14 -9
8 0 16 -6 19 -12 4 -10 7 -10 18 0 7 6 20 12 29 11 10 0 9 -3 -5 -9 -18 -8
-18 -9 -2 -9 24 -1 69 33 59 45 -4 5 1 2 10 -5 9 -7 22 -10 28 -6 5 3 10 0 10
-7 0 -12 36 -42 52 -43 4 0 12 -5 18 -11 8 -8 7 -14 -5 -24 -10 -8 -15 -9 -15
-1 0 6 5 11 12 11 6 0 8 3 5 6 -4 4 -13 2 -21 -5 -10 -8 -103 -13 -305 -17
-259 -4 -291 -3 -291 11 0 24 46 65 72 65 17 0 19 -3 9 -9 -10 -6 -2 -11 27
-16 43 -7 75 4 104 37 9 11 21 17 26 14 5 -3 17 3 27 14 23 25 30 25 71 -1z"/>
<path d="M545 1690 c-27 -11 -62 -19 -77 -20 -15 0 -30 -5 -33 -10 -4 -7 3 -9
22 -5 57 13 138 38 148 47 14 12 -3 9 -60 -12z"/>
<path d="M1584 1460 c0 -102 2 -143 3 -92 2 50 2 134 0 185 -1 50 -3 9 -3 -93z"/>
<path d="M404 1445 c0 -88 2 -123 3 -77 2 46 2 118 0 160 -1 42 -3 5 -3 -83z"/>
<path d="M870 1473 c0 -5 13 -23 28 -42 26 -31 29 -32 45 -17 9 10 21 25 27
34 9 15 12 14 33 -10 12 -16 28 -28 34 -28 11 0 53 51 53 64 0 16 -22 3 -38
-24 l-18 -29 -18 29 c-21 37 -38 38 -65 3 -23 -28 -23 -28 -40 5 -11 20 -41
32 -41 15z"/>
<path d="M923 1364 c-7 -20 1 -65 12 -64 6 1 9 8 9 16 -2 21 33 17 73 -7 37
-23 58 -18 27 7 -13 11 -15 17 -6 20 25 11 12 34 -20 35 -18 1 -46 2 -62 3
-15 1 -30 -4 -33 -10z m97 -14 c0 -5 -18 -10 -41 -10 -24 0 -38 4 -34 10 3 6
22 10 41 10 19 0 34 -4 34 -10z"/>
<path d="M943 1273 c-55 -11 -8 -43 63 -43 13 0 24 -4 24 -10 0 -13 -56 -13
-82 1 -11 6 -23 8 -26 4 -12 -12 23 -25 68 -25 87 0 93 35 8 46 -38 5 -46 9
-34 16 11 6 28 6 48 -1 30 -11 48 -8 35 5 -8 8 -78 13 -104 7z"/>
<path d="M1076 1253 c-14 -14 -2 -18 63 -20 68 -1 161 -31 161 -51 0 -18 -51
-367 -56 -384 -5 -15 -8 -15 -38 3 -38 22 -127 41 -139 30 -4 -5 13 -11 38
-14 26 -4 68 -16 93 -27 36 -16 43 -23 32 -30 -20 -13 -33 -12 -25 0 4 6 -9
17 -29 25 -38 16 -74 20 -41 4 17 -8 17 -9 -5 -4 -14 2 -33 5 -42 5 -9 0 -31
16 -49 35 -19 19 -41 35 -49 35 -21 0 -85 -66 -72 -74 5 -3 15 1 22 9 14 16
85 21 94 6 3 -5 30 -15 58 -21 55 -13 115 -40 160 -71 35 -25 36 -24 42 14 3
17 19 117 36 221 17 104 27 192 23 195 -5 3 -19 20 -31 37 -12 18 -43 40 -70
52 -48 21 -164 37 -176 25z m240 -155 l-5 -53 10 43 c14 57 28 45 18 -15 -4
-26 -19 -115 -33 -196 -14 -82 -26 -153 -26 -158 0 -6 -13 -2 -29 7 -25 15
-27 20 -15 28 12 10 32 110 70 359 9 56 17 44 10 -15z"/>
<path d="M1267 799 c-3 -23 -11 -45 -17 -49 -8 -5 -7 -9 3 -13 12 -4 17 6 22
44 4 28 5 52 2 55 -2 3 -7 -14 -10 -37z"/>
<path d="M750 1243 c-47 -16 -100 -46 -100 -57 0 -7 -9 -22 -21 -35 -25 -26
-23 -50 16 -266 13 -71 25 -142 27 -157 5 -37 15 -44 35 -26 26 22 80 49 143
70 49 16 51 17 15 12 -22 -3 -70 -20 -107 -38 -50 -25 -68 -30 -72 -20 -3 7
-17 89 -31 181 -14 92 -29 178 -32 190 -4 20 21 63 31 52 2 -2 14 -75 26 -162
17 -120 19 -161 11 -171 -8 -9 -8 -17 -2 -20 5 -3 12 0 14 6 3 7 6 4 6 -8 1
-33 10 -34 58 -8 25 13 67 27 94 30 27 4 49 10 49 15 0 5 -4 9 -8 9 -23 0
-130 -33 -150 -46 -13 -9 -26 -14 -28 -11 -2 2 -9 39 -14 83 -6 43 -19 130
-30 193 -11 63 -17 118 -13 124 14 24 96 48 163 49 39 0 70 4 70 9 0 9 -124
11 -150 2z"/>
<path d="M411 1139 c-1 -43 23 -190 46 -274 58 -220 215 -396 461 -520 l73
-36 75 40 c164 89 288 191 369 306 47 66 85 137 85 157 0 7 -14 -14 -31 -47
-36 -69 -88 -145 -133 -193 -30 -32 -180 -152 -190 -152 -3 0 -33 -18 -68 -40
-92 -57 -110 -59 -193 -15 -303 160 -430 350 -480 713 -7 54 -13 81 -14 61z"/>
<path d="M920 1148 c0 -42 15 -52 74 -52 30 0 57 2 59 4 2 3 7 20 10 38 5 24
3 32 -8 32 -8 0 -15 -12 -17 -27 -3 -25 -7 -28 -43 -28 -36 0 -40 3 -43 28 -4
33 -32 37 -32 5z"/>
<path d="M642 1100 c-1 -14 8 -68 18 -120 13 -64 18 -77 14 -40 -7 71 -31 192
-32 160z"/>
<path d="M930 1030 c0 -22 5 -40 10 -40 6 0 10 7 10 15 0 11 12 15 44 15 56 0
82 25 41 40 -14 5 -44 10 -66 10 -39 0 -39 0 -39 -40z m95 10 c-3 -5 -22 -10
-41 -10 -19 0 -34 5 -34 10 0 6 18 10 41 10 24 0 38 -4 34 -10z"/>
<path d="M1560 1022 c0 -16 -9 -64 -20 -107 -24 -92 -20 -113 4 -26 19 68 32
161 22 161 -3 0 -6 -13 -6 -28z"/>
<path d="M929 968 c-12 -55 4 -120 18 -69 7 27 36 27 80 0 33 -21 51 -21 38 0
-3 6 -13 11 -21 11 -8 0 -14 5 -14 10 0 6 7 10 15 10 24 0 18 27 -7 34 -22 6
-107 9 -109 4z m96 -28 c-3 -5 -22 -10 -41 -10 -19 0 -34 5 -34 10 0 6 18 10
41 10 24 0 38 -4 34 -10z"/>
<path d="M815 791 c-27 -11 -67 -26 -89 -34 -21 -8 -34 -17 -29 -20 5 -3 32 6
60 19 28 14 73 32 100 39 26 7 39 13 28 14 -11 0 -42 -8 -70 -18z"/>
<path d="M920 750 c0 -6 12 -9 28 -8 24 3 27 -1 30 -29 4 -44 22 -42 22 1 0
32 2 35 30 34 17 -1 33 2 37 5 3 4 -28 7 -70 7 -47 0 -77 -4 -77 -10z"/>
<path d="M906 652 c-3 -3 -6 -20 -6 -39 0 -24 5 -33 16 -33 12 0 15 6 10 25
-4 14 -2 25 4 25 5 0 17 -11 26 -25 21 -32 39 -32 69 3 l24 27 1 -27 c0 -18 5
-28 15 -28 10 0 13 10 11 37 -5 49 -19 52 -56 11 l-31 -33 -24 29 c-23 29 -47
40 -59 28z"/>
<path d="M935 520 c-24 -25 -33 -40 -24 -40 8 0 20 5 26 11 16 16 82 17 95 2
11 -14 38 -18 38 -5 0 12 -69 72 -83 72 -7 0 -31 -18 -52 -40z"/>
<path d="M920 410 c0 -29 4 -38 14 -34 8 3 11 15 8 30 -6 30 0 30 46 -1 53
-36 72 -33 72 10 0 25 -4 35 -15 35 -11 0 -14 -7 -9 -25 3 -14 3 -25 0 -25 -4
0 -24 11 -46 25 -57 36 -70 33 -70 -15z"/>
<path d="M180 1754 c-11 -25 -20 -61 -20 -80 0 -40 26 -98 40 -89 6 3 7 0 4
-8 -11 -31 13 -24 36 10 17 25 24 47 23 77 -2 42 -40 136 -55 136 -5 0 -18
-21 -28 -46z m49 -22 c20 -40 21 -107 1 -140 -7 -12 -10 4 -8 60 2 74 -4 100
-19 84 -4 -4 -1 -11 7 -16 11 -7 11 -12 2 -23 -7 -7 -9 -17 -6 -20 4 -3 3 -23
-1 -44 -6 -32 -9 -35 -15 -18 -13 30 -12 101 2 130 6 14 13 25 14 25 2 0 12
-17 23 -38z"/>
<path d="M1749 1749 c-30 -64 -29 -118 2 -163 l23 -34 16 22 c34 46 43 75 37
121 -7 47 -32 105 -46 105 -4 0 -18 -23 -32 -51z m57 -40 c3 -24 2 -60 -2 -79
-5 -30 -8 -32 -14 -15 -5 11 -9 36 -9 55 -1 25 -4 31 -10 21 -5 -8 -8 -38 -5
-65 l4 -51 -16 35 c-19 41 -14 95 11 134 22 33 34 23 41 -35z"/>
<path d="M1656 1503 c4 -76 6 -161 5 -190 -2 -56 17 -106 45 -117 9 -4 14 -9
10 -13 -3 -4 -17 4 -31 17 -14 13 -28 20 -32 16 -4 -4 -1 -12 7 -16 82 -49
103 -60 80 -41 l-25 21 30 -1 c17 -1 41 -4 54 -8 21 -6 22 -8 8 -19 -9 -8 -19
-27 -22 -43 -8 -34 -24 -34 -42 1 -14 29 -33 41 -55 34 -13 -4 -18 0 -18 15 0
12 -4 21 -8 21 -5 0 -8 -15 -8 -32 0 -18 -3 -66 -7 -105 -6 -49 -5 -73 2 -73
6 0 8 7 4 15 -10 28 60 -13 85 -49 24 -35 27 -46 13 -46 -5 0 -18 16 -30 35
-11 19 -25 35 -31 35 -6 0 -2 -13 9 -29 23 -32 26 -41 11 -41 -5 0 -20 16 -32
35 -13 19 -26 35 -30 35 -4 0 -12 -26 -18 -57 -6 -32 -17 -75 -25 -96 -14 -38
-14 -40 15 -63 33 -28 55 -84 46 -120 -5 -20 -3 -24 15 -24 14 0 19 -5 16 -14
-5 -12 3 -14 45 -9 47 6 49 5 38 -13 -21 -33 -59 -56 -88 -51 -26 4 -26 4 -5
12 13 4 20 11 17 16 -3 5 -13 5 -24 -1 -32 -17 -46 -10 -20 10 14 11 21 20 15
19 -5 0 -19 -6 -29 -14 -24 -18 -36 -11 -36 23 0 15 -5 34 -11 42 -8 11 -9 5
-4 -23 7 -46 -2 -48 -20 -2 -11 25 -12 41 -5 61 l11 27 24 -33 c14 -19 26 -48
26 -64 1 -28 2 -27 9 9 9 43 -6 125 -22 125 -6 0 -7 -8 -3 -17 4 -10 9 -27 12
-38 4 -20 4 -20 -11 -1 -9 11 -16 35 -16 53 0 18 -5 33 -10 33 -6 0 -10 -6 -8
-12 1 -7 -10 -43 -25 -81 -15 -37 -27 -75 -26 -85 0 -12 3 -10 11 8 11 28 15
23 27 -41 6 -31 9 -36 10 -16 1 30 12 35 30 13 9 -11 9 -19 -1 -35 -22 -36
-38 -34 -56 9 -9 22 -20 40 -24 40 -5 0 -7 -28 -7 -62 1 -54 3 -58 9 -28 4 19
8 29 9 22 0 -7 5 -11 10 -7 5 3 12 1 16 -5 11 -17 67 -42 74 -33 3 5 24 17 46
26 31 12 35 16 17 16 -13 1 -37 -6 -53 -15 -45 -23 -58 -11 -17 14 24 15 51
22 84 22 l49 -1 -40 -34 c-21 -18 -55 -36 -73 -40 -40 -7 -38 -13 6 -17 l33
-2 -23 -17 c-41 -31 -108 -28 -108 5 0 7 -10 16 -22 19 -28 8 -32 3 -19 -21
12 -22 58 -36 106 -33 36 2 95 40 95 61 1 8 14 30 29 48 18 21 27 41 24 53 -3
10 -1 19 5 19 5 0 15 15 22 33 6 17 21 51 33 74 17 33 18 44 8 56 -8 10 -8 16
-1 19 8 2 50 141 50 164 0 3 -12 1 -27 -2 l-28 -7 28 28 c15 15 27 33 27 39 6
125 13 203 19 211 4 5 7 88 7 183 -1 129 -4 175 -14 181 -10 6 -10 14 -2 35
11 29 14 76 4 76 -8 0 -98 -73 -102 -83 -2 -4 -10 -14 -18 -21 -8 -8 -14 -19
-14 -25 0 -19 -18 -12 -25 9 -3 11 -17 28 -30 38 -13 11 -21 22 -18 26 3 3 22
-6 40 -20 59 -45 42 -21 -24 34 l-63 52 6 -137z m31 75 c-6 -19 71 -108 94
-108 10 0 23 6 29 13 33 40 55 73 55 86 0 8 6 16 13 18 8 3 11 -3 8 -19 -3
-12 -5 -24 -7 -25 -2 -3 -3 -8 -14 -40 -4 -13 -11 -20 -16 -17 -5 3 -9 0 -9
-5 0 -16 26 -13 44 4 14 14 15 12 11 -17 -6 -48 -36 -83 -74 -84 -17 -1 -31 1
-31 3 0 13 32 62 42 66 7 3 9 6 3 6 -15 1 -50 -31 -58 -52 -4 -10 -11 -15 -17
-12 -5 3 -10 1 -10 -4 0 -6 7 -11 15 -11 8 0 15 -4 15 -9 0 -5 9 -7 20 -4 11
3 20 2 20 -1 0 -17 -22 -46 -34 -46 -9 0 -12 -7 -9 -20 8 -32 -5 -23 -32 20
-14 23 -30 38 -35 35 -6 -3 3 -20 20 -38 34 -36 33 -42 -3 -26 -24 11 -37 32
-52 87 -8 29 0 28 46 -9 51 -40 50 -24 -1 20 -35 30 -69 96 -55 109 2 2 25
-10 52 -28 39 -27 44 -28 28 -9 -11 13 -30 31 -42 41 -22 19 -46 72 -36 82 11
11 25 6 20 -6z m141 -50 c-12 -18 -24 -35 -25 -37 -2 -2 -6 -2 -9 1 -8 8 15
50 35 65 25 18 25 7 -1 -29z m78 -152 c-6 -32 -20 -57 -44 -79 -32 -29 -35 -3
-5 34 15 18 21 30 13 27 -8 -2 -25 -20 -38 -38 -19 -29 -21 -35 -8 -40 12 -4
8 -13 -19 -41 -19 -20 -31 -39 -28 -43 4 -3 2 -6 -3 -6 -5 0 -19 16 -32 35
-12 19 -29 35 -37 35 -10 0 -5 -10 15 -32 33 -34 33 -46 1 -29 -24 13 -51 61
-51 91 0 21 1 21 33 -3 37 -29 97 -27 97 2 1 28 27 65 62 88 43 28 49 28 44
-1z m-2 -103 c-9 -38 -30 -70 -54 -83 -27 -14 -27 3 0 30 11 11 20 26 20 33
-1 6 -16 -6 -35 -28 -20 -23 -35 -34 -35 -25 0 27 70 95 103 99 4 1 5 -11 1
-26z m-8 -100 c-10 -43 -40 -78 -69 -81 -21 -3 -27 1 -27 15 0 23 8 33 50 66
44 34 54 34 46 0z m-173 -62 c9 -15 14 -31 10 -34 -9 -9 -54 42 -48 54 10 15
20 10 38 -20z m-19 -41 c14 -5 32 -22 40 -37 10 -18 15 -22 16 -12 0 9 -7 22
-15 29 -21 18 -12 23 40 26 l45 1 -25 -23 c-14 -13 -25 -29 -25 -36 0 -7 8 -3
18 10 28 36 106 83 87 52 -3 -5 -8 -20 -10 -32 -14 -69 -109 -90 -145 -31 -18
30 -40 51 -40 38 0 -4 12 -22 26 -41 32 -42 14 -45 -27 -5 -23 24 -29 38 -28
73 0 36 2 39 9 20 5 -12 21 -27 34 -32z m170 -112 c-7 -35 -39 -76 -50 -65 -4
4 0 15 9 25 19 21 22 32 8 32 -5 0 -19 -16 -31 -35 -23 -37 -44 -48 -33 -17 3
9 15 27 26 40 11 12 16 22 9 22 -6 0 -19 -11 -29 -24 l-19 -24 -17 29 -16 30
61 -2 c40 -1 63 2 66 9 8 26 21 10 16 -20z m-191 -66 c29 -30 48 -92 28 -92
-6 0 -11 8 -11 18 0 10 -7 27 -16 38 -15 19 -16 19 -9 -1 19 -55 18 -61 -9
-31 -17 19 -26 41 -26 63 0 40 8 41 43 5z m114 -16 c16 10 73 -2 73 -16 0 -23
-44 -71 -70 -77 -17 -3 -30 -9 -30 -14 0 -12 23 -11 55 1 24 9 26 8 19 -12 -3
-13 -11 -24 -15 -26 -5 -2 -9 -10 -9 -17 0 -14 -30 -25 -72 -25 -26 0 -27 2
-16 25 6 14 15 25 20 25 4 0 8 5 8 11 0 8 -4 9 -13 0 -8 -6 -18 -7 -22 -3 -5
4 -5 1 -1 -5 4 -7 2 -13 -3 -13 -6 0 -11 -7 -11 -15 0 -34 -23 -12 -35 35 -7
23 -19 39 -26 34 -5 -3 -2 -16 7 -29 9 -13 14 -30 12 -36 -2 -7 -14 3 -26 23
-23 37 -29 83 -12 93 6 3 10 1 10 -5 0 -7 11 -21 25 -32 14 -11 25 -26 25 -33
0 -8 5 -17 11 -21 8 -4 9 1 4 15 -6 20 -4 22 23 18 22 -4 36 2 55 19 15 13 31
24 37 24 5 0 10 5 10 10 0 16 -15 11 -46 -15 -16 -14 -31 -20 -33 -14 -4 14 7
25 54 48 22 11 36 20 30 21 -5 0 -23 -7 -39 -15 -15 -8 -32 -13 -36 -10 -4 3
-11 -7 -15 -23 l-8 -27 -7 25 c-5 14 -8 35 -9 47 -1 20 1 20 29 10 22 -8 35
-9 47 -1z m-100 -187 c7 -7 39 -12 72 -13 34 0 61 -4 61 -8 0 -5 -4 -8 -9 -8
-5 0 -11 -9 -14 -20 -6 -24 -79 -59 -85 -41 -2 6 -10 11 -18 11 -8 0 -14 3
-14 6 0 10 42 44 53 44 6 0 8 3 5 6 -4 3 -20 -2 -37 -11 -17 -8 -31 -12 -31
-8 0 5 -3 18 -6 31 -7 24 5 29 23 11z m-43 -177 c3 -5 -9 -17 -26 -27 -22 -12
-29 -14 -23 -4 22 38 38 48 49 31z"/>
<path d="M1836 1138 c-25 -35 -19 -44 9 -14 27 29 30 36 16 36 -6 0 -17 -10
-25 -22z"/>
<path d="M1734 633 c-27 -20 -11 -25 24 -7 18 8 32 17 32 19 0 8 -40 0 -56
-12z"/>
<path d="M83 1578 c0 -29 -3 -102 -6 -163 -3 -60 -2 -154 3 -208 8 -84 13
-101 32 -117 13 -11 29 -19 36 -20 17 0 15 -20 -3 -20 -11 0 -10 -6 7 -25 12
-14 26 -25 32 -25 8 0 8 2 0 8 -16 11 -24 40 -12 44 6 2 -4 17 -21 33 -39 36
-61 76 -61 107 1 20 2 21 13 8 16 -19 57 -43 64 -36 8 8 -7 26 -22 26 -18 0
-51 47 -57 83 -6 31 -1 33 26 12 11 -8 28 -13 37 -10 9 3 36 1 60 -4 39 -9 47
-7 75 14 17 13 34 21 38 18 8 -8 8 10 0 30 -4 12 -11 9 -33 -15 -31 -35 -81
-47 -81 -18 0 20 35 57 79 83 24 14 30 15 25 4 -3 -8 -1 -18 5 -22 7 -4 11 8
11 34 0 23 -2 41 -4 41 -3 0 -34 -29 -70 -65 -36 -35 -66 -60 -66 -56 0 5 -3
16 -6 24 -5 13 27 31 49 28 4 -1 7 4 7 9 0 6 11 20 25 32 26 23 32 38 15 38
-6 0 -19 -13 -28 -30 -16 -28 -42 -41 -42 -21 0 12 -70 95 -71 84 0 -4 -4 2
-10 15 -5 13 -12 21 -16 19 -5 -3 -8 13 -9 34 -1 21 3 39 7 39 5 0 9 -4 9 -9
0 -5 11 -12 25 -15 14 -4 25 -11 25 -16 0 -14 -13 -13 -28 2 -15 15 -16 3 -2
-23 13 -23 30 -25 30 -4 0 8 5 15 10 15 6 0 10 -4 10 -9 0 -5 3 -17 7 -27 5
-13 3 -16 -10 -11 -9 3 -17 2 -17 -3 0 -5 12 -13 26 -16 22 -6 33 0 63 32 20
22 36 47 36 57 0 9 5 17 10 17 6 0 10 -4 10 -10 0 -5 5 -10 10 -10 6 0 11 15
13 35 2 19 0 35 -5 35 -4 0 -32 -22 -60 -48 -29 -27 -55 -47 -58 -44 -3 3 -5
1 -5 -4 0 -5 -26 14 -57 43 -31 29 -59 53 -63 53 -3 0 -6 -24 -7 -52z m183
-35 c-8 -16 -21 -37 -30 -48 -15 -20 -15 -20 -16 1 0 19 41 74 55 74 3 0 -1
-12 -9 -27z m-98 -100 c12 -13 22 -28 22 -33 0 -4 3 -17 6 -27 4 -13 0 -11
-15 7 -11 14 -21 30 -21 36 0 12 -29 28 -37 21 -2 -2 7 -15 20 -29 13 -14 27
-33 30 -43 6 -14 2 -13 -21 4 -40 28 -48 41 -55 84 l-6 39 27 -18 c15 -9 37
-28 50 -41z m10 -118 c14 -31 15 -35 3 -35 -5 0 -13 9 -16 20 -8 24 -32 50
-48 50 -6 0 2 -13 18 -30 29 -30 29 -48 1 -37 -21 8 -45 47 -52 86 l-7 32 45
-30 c24 -16 50 -42 56 -56z"/>
<path d="M268 1487 c-27 -27 -48 -57 -47 -66 0 -12 3 -11 9 4 5 11 31 36 59
55 46 33 58 51 35 56 -5 1 -30 -21 -56 -49z"/>
<path d="M150 1268 c0 -5 9 -17 20 -28 11 -11 20 -28 20 -37 0 -14 -7 -10 -28
15 -15 18 -32 32 -39 32 -6 0 6 -18 28 -40 24 -24 47 -39 59 -37 20 3 88 87
70 87 -6 0 -20 -16 -31 -35 -21 -35 -49 -47 -49 -21 0 15 -49 77 -50 64z"/>
<path d="M310 1255 c0 -8 -11 -26 -25 -40 -14 -14 -21 -25 -15 -25 6 0 22 12
35 26 26 28 33 54 15 54 -5 0 -10 -7 -10 -15z"/>
<path d="M306 1195 c-20 -15 -20 -15 0 -16 17 0 16 -2 -6 -17 -43 -30 -71 -60
-62 -66 5 -3 21 8 36 25 15 16 31 27 36 24 14 -8 -1 -32 -45 -74 -19 -19 -35
-40 -35 -47 0 -22 -17 -16 -23 8 -4 12 -9 19 -12 16 -4 -3 -1 -16 5 -28 12
-23 1 -39 -26 -40 -20 0 -64 52 -64 76 0 13 -5 24 -11 24 -8 0 -9 -11 -5 -31
3 -17 6 -37 6 -44 0 -20 59 -39 112 -36 l49 3 -16 -26 c-21 -31 -26 -32 -43
-6 -7 11 -17 20 -24 20 -6 0 -2 -10 9 -22 24 -28 36 -58 22 -58 -5 0 -19 16
-30 35 -20 34 -39 46 -39 25 0 -5 3 -10 8 -10 4 0 15 -14 24 -30 17 -29 50
-39 73 -22 18 13 66 82 57 82 -12 0 -42 -34 -42 -47 0 -6 -7 -16 -15 -23 -11
-9 -15 -9 -15 -1 0 27 32 72 63 87 17 9 36 22 40 28 5 6 6 -7 2 -29 -4 -25
-16 -50 -33 -66 -29 -28 -33 -37 -38 -84 -3 -30 -3 -30 4 -2 8 30 57 97 72 97
23 0 9 -67 -20 -100 -34 -40 -39 -30 -10 18 25 41 25 50 1 28 -10 -9 -21 -30
-25 -46 -5 -27 -9 -29 -38 -26 -18 2 -40 14 -50 27 -14 17 -22 19 -30 11 -9
-9 -9 -12 0 -12 7 0 22 -9 34 -20 18 -16 19 -20 5 -20 -32 0 -66 23 -77 53
-13 40 -13 42 7 26 15 -12 16 -12 10 4 -4 10 -2 17 5 17 6 0 4 8 -5 18 -9 10
-22 33 -28 50 -6 18 -15 32 -21 32 -13 0 0 -39 24 -74 l20 -28 -22 7 c-20 6
-22 5 -16 -16 3 -13 11 -46 16 -73 6 -27 15 -56 22 -64 7 -8 17 -24 23 -35 7
-14 24 -24 49 -28 21 -3 49 -18 64 -33 31 -31 16 -35 -22 -5 -14 11 -34 19
-44 16 -12 -2 -4 -9 26 -23 47 -21 56 -38 15 -28 -44 10 -69 30 -87 69 -10 20
-20 34 -23 31 -6 -5 3 -26 55 -134 9 -18 16 -42 17 -53 1 -11 14 -32 28 -47
15 -16 27 -36 27 -46 0 -12 5 -16 16 -12 9 3 32 6 52 7 l37 1 -41 13 c-41 13
-94 51 -94 67 0 15 94 6 113 -10 16 -14 19 -14 34 1 10 9 12 17 6 17 -6 0 -14
-6 -17 -12 -3 -9 -10 -7 -23 7 -12 14 -31 20 -59 20 -33 1 -47 7 -67 30 l-26
30 31 3 c16 2 43 -1 59 -7 18 -6 27 -6 24 -1 -4 6 -13 10 -21 10 -8 0 -12 5
-9 11 4 5 14 9 23 7 10 -2 22 3 29 12 10 13 12 10 13 -17 0 -17 -5 -33 -10
-35 -7 -2 -6 -10 3 -22 19 -26 58 -6 49 26 -5 21 -5 21 -16 -3 -10 -24 -10
-24 -14 7 -2 19 6 48 22 77 l24 47 11 -31 c8 -23 7 -39 -2 -62 -7 -19 -10 -48
-6 -72 l6 -40 2 40 c3 43 19 95 20 63 1 -9 6 -20 13 -24 16 -10 3 48 -24 108
-22 49 -38 62 -38 31 -1 -10 -8 -29 -16 -43 l-15 -25 4 25 c3 14 8 33 12 43 4
10 3 17 -3 17 -9 0 -28 -56 -24 -72 1 -3 -5 -12 -13 -18 -13 -10 -15 -8 -15
11 0 15 -3 19 -8 12 -6 -9 -16 -8 -42 5 l-34 16 30 7 c17 3 36 9 42 13 8 4 12
0 13 -11 0 -16 1 -16 9 2 5 11 21 34 35 50 23 26 26 27 22 8 -3 -15 -1 -20 9
-16 16 6 12 29 -12 73 l-13 25 -1 -23 c0 -26 -29 -82 -42 -82 -12 0 -10 13 8
38 9 14 11 22 4 22 -6 0 -19 -18 -27 -40 -16 -40 -39 -46 -28 -7 5 17 4 19 -4
7 -8 -12 -13 -12 -30 5 -12 10 -19 21 -16 24 10 10 55 12 55 3 0 -6 18 8 40
30 l40 40 -10 67 c-21 139 -28 175 -29 149 -1 -16 -13 -36 -32 -53 -39 -32
-48 -26 -19 14 12 17 16 31 10 31 -6 0 -20 -16 -31 -35 -25 -42 -34 -45 -24
-8 7 29 40 63 60 63 7 0 16 7 19 16 3 8 11 12 17 8 9 -5 10 1 4 22 -4 16 -8
44 -9 62 0 17 -1 32 -1 32 0 0 -9 -7 -19 -15z m-116 -431 c44 -15 73 -38 78
-62 4 -21 -15 -13 -32 13 -9 14 -26 25 -39 25 -19 0 -18 -2 11 -20 38 -23 42
-39 7 -33 -21 5 -53 37 -79 81 -9 16 -1 15 54 -4z"/>
<path d="M140 1129 c12 -16 25 -28 27 -25 8 8 -25 56 -38 56 -6 0 -1 -14 11
-31z"/>
<path d="M178 1138 c16 -16 15 -45 0 -51 -8 -4 -7 -6 4 -6 9 -1 19 -7 22 -13
8 -19 -1 44 -9 65 -4 9 -12 17 -18 17 -7 0 -7 -4 1 -12z"/>
<path d="M165 861 c3 -6 13 -11 21 -11 8 0 26 -12 39 -26 14 -15 25 -23 25
-18 0 19 -17 34 -54 49 -21 9 -35 11 -31 6z"/>
<path d="M470 568 c0 -10 -4 -18 -8 -18 -4 0 -14 -16 -21 -35 -8 -22 -19 -35
-30 -35 -10 0 -24 -7 -31 -15 -11 -13 -16 -13 -42 1 -16 8 -37 14 -46 12 -11
-3 -3 -9 21 -17 20 -7 37 -17 37 -22 0 -17 25 -9 55 17 25 21 30 23 35 9 4
-10 10 1 18 30 6 25 16 45 22 45 13 0 24 -64 15 -97 -5 -23 -4 -25 9 -14 9 8
16 20 16 27 0 26 18 14 25 -17 4 -17 9 -28 12 -25 10 10 -9 66 -33 91 -13 14
-24 29 -24 34 0 4 -7 16 -15 27 -13 17 -14 17 -15 2z"/>
<path d="M1498 552 c-7 -18 -17 -32 -23 -32 -11 0 -46 -72 -44 -93 0 -6 7 3
15 22 8 18 17 31 20 29 7 -8 -8 -128 -17 -128 -5 0 -9 8 -10 18 0 9 -3 12 -5
5 -3 -7 0 -22 7 -35 8 -13 12 -26 11 -30 -1 -5 4 -8 11 -8 16 0 36 45 27 60
-5 8 -9 4 -13 -11 -4 -13 -8 -21 -11 -18 -7 7 15 89 24 89 4 0 5 20 3 44 -4
29 0 55 11 77 9 18 14 35 11 37 -3 3 -11 -9 -17 -26z"/>
<path d="M265 547 c28 -19 55 -28 55 -18 0 9 -45 31 -63 31 -6 0 -3 -6 8 -13z"/>
<path d="M584 400 c3 -36 8 -83 10 -105 3 -22 3 -32 0 -22 -3 9 -10 14 -16 11
-6 -4 -14 0 -19 7 -5 8 -9 9 -9 3 0 -6 7 -17 15 -24 35 -29 -4 -57 -62 -44
l-28 6 29 -16 c33 -18 62 -13 89 16 17 17 18 28 10 99 -5 43 -6 79 -2 79 14 0
31 -71 25 -101 -3 -19 -2 -28 4 -24 6 3 10 14 11 23 0 9 7 -5 15 -33 7 -27 12
-54 10 -60 -3 -5 -5 -2 -5 7 -1 9 -6 20 -13 24 -8 5 -9 2 -5 -9 4 -12 1 -17
-11 -17 -15 0 -15 -2 -2 -10 11 -7 5 -10 -22 -10 -21 0 -38 -4 -38 -8 0 -7 65
-8 112 -3 7 1 -1 60 -12 81 -4 8 -10 33 -14 55 -6 37 -5 39 9 21 8 -11 17 -36
21 -55 9 -54 12 -60 13 -21 1 46 -34 120 -59 127 -10 3 -22 13 -25 23 -3 10
-13 24 -21 31 -14 12 -16 6 -10 -51z"/>
<path d="M1385 433 c-11 -18 -27 -34 -36 -36 -36 -9 -82 -167 -49 -167 5 0 9
-3 9 -7 -4 -22 4 -33 35 -52 18 -12 46 -21 62 -21 34 0 127 43 102 48 -9 2
-29 -5 -43 -14 -29 -19 -93 -21 -109 -3 -8 9 -1 10 27 5 27 -5 37 -4 32 3 -3
6 -21 11 -38 12 -18 0 -26 3 -19 6 17 7 15 20 -4 27 -8 3 -12 2 -9 -4 3 -6 -1
-10 -10 -10 -11 0 -15 5 -12 14 3 8 8 32 11 53 l6 38 -14 -35 -14 -35 -1 30
c0 17 8 45 17 62 l17 33 1 -41 c1 -22 6 -45 12 -51 8 -8 10 -2 6 23 -5 31 21
118 31 107 3 -3 -1 -41 -7 -86 -7 -45 -9 -84 -5 -88 4 -4 17 -2 29 4 15 7 17
11 8 11 -12 1 -12 3 -2 10 8 4 34 4 59 0 25 -5 50 -6 55 -3 6 4 9 1 6 -7 -3
-8 -22 -19 -43 -25 -25 -7 -33 -12 -23 -16 21 -8 94 26 110 51 7 12 17 21 23
21 5 0 21 9 34 19 40 31 5 34 -37 3 -36 -26 -46 -28 -121 -26 -67 2 -81 -1
-81 -14 0 -8 -2 -13 -5 -10 -4 3 -1 35 5 70 6 36 10 80 8 99 l-4 34 -19 -32z"/>
<path d="M405 419 c-19 -7 -19 -8 2 -8 12 -1 24 -5 27 -10 4 -5 -11 -7 -34 -4
-27 4 -40 2 -40 -6 0 -7 8 -11 18 -10 9 1 26 1 37 0 17 -1 18 -3 5 -12 -11 -8
-7 -9 16 -4 26 5 34 2 48 -20 l16 -25 -42 1 c-36 1 -39 2 -18 9 17 5 3 7 -42
6 -38 0 -68 -3 -67 -6 1 -8 109 -91 127 -97 14 -5 14 -3 -3 17 l-20 23 22 -7
c15 -5 28 -1 42 13 12 12 25 21 30 21 5 0 11 8 14 18 2 9 8 26 12 37 6 17 5
17 -9 -2 -23 -31 -36 -29 -37 5 0 21 -2 23 -8 9 -6 -17 -8 -17 -25 1 -11 13
-14 22 -7 27 15 9 14 28 -1 22 -7 -2 -20 -1 -28 3 -8 4 -24 4 -35 -1z m105
-111 c0 -26 -92 -30 -117 -5 -13 13 -7 14 51 13 36 0 66 -4 66 -8z"/>
<path d="M516 393 c9 -52 14 -54 14 -5 0 23 -5 42 -10 42 -7 0 -8 -14 -4 -37z"/>
<path d="M300 385 c13 -16 88 -40 97 -31 3 3 -3 8 -13 11 -10 4 -34 13 -52 21
-41 18 -47 18 -32 -1z"/>
<path d="M1575 390 c8 -13 35 -13 55 0 11 7 5 10 -23 10 -23 0 -36 -4 -32 -10z"/>
<path d="M1555 330 c16 -7 12 -9 -20 -10 -38 -2 -39 -3 -10 -9 17 -4 34 -4 40
1 5 4 18 8 30 9 20 0 20 0 0 9 -11 5 -29 9 -40 9 -20 0 -20 0 0 -9z"/>
<path d="M849 244 c-12 -24 -12 -28 10 -45 23 -19 23 -19 -60 -19 -46 0 -90
-4 -97 -9 -8 -5 -12 -21 -10 -37 3 -28 5 -29 65 -32 39 -2 76 3 100 12 23 10
32 11 22 3 -9 -6 -15 -19 -14 -27 2 -12 -18 -15 -117 -18 -82 -2 -117 1 -113
8 4 7 -10 10 -42 9 -26 -1 -112 2 -190 6 -106 6 -143 5 -143 -3 0 -7 16 -12
40 -12 49 0 52 -14 5 -31 -19 -7 -35 -17 -35 -21 0 -10 -1 -10 67 7 64 17 263
11 263 -8 0 -16 183 -1 220 18 31 16 33 16 26 0 -8 -23 11 -45 38 -44 11 0 16
3 9 5 -7 3 -9 13 -6 21 5 12 2 15 -10 10 -11 -4 -14 -2 -10 9 6 16 23 19 23 5
0 -6 17 -7 38 -4 l37 5 -30 -21 c-16 -11 -24 -21 -16 -21 7 0 29 16 48 35 l35
35 40 -35 c32 -30 46 -36 76 -33 31 3 37 7 36 26 0 17 3 21 15 16 65 -26 229
-40 237 -20 6 16 208 19 267 5 60 -14 72 -6 22 16 -40 16 -41 26 -3 30 61 6
63 7 33 14 -58 13 -361 -4 -357 -19 2 -11 -43 -10 -182 7 -37 4 -47 2 -41 -7
6 -9 2 -9 -16 1 -21 11 -22 10 -12 -2 10 -12 8 -15 -8 -16 -30 -3 -22 22 15
43 14 7 36 8 70 1 27 -4 65 -6 83 -2 30 5 33 9 33 40 0 25 -4 35 -16 35 -8 0
-13 -4 -10 -9 9 -14 -31 -21 -116 -21 -63 0 -78 3 -78 15 0 8 7 15 15 15 9 0
25 9 37 20 19 17 20 23 9 46 l-12 27 -22 -20 c-12 -12 -36 -28 -53 -37 -31
-15 -32 -15 -38 9 -6 25 -39 35 -51 15 -4 -6 -16 -3 -31 6 -13 9 -27 14 -31
10 -3 -3 -1 -6 5 -6 14 0 52 -36 52 -49 0 -5 -20 2 -45 16 -46 25 -55 37 -32
46 6 3 3 6 -9 6 -13 1 -26 -9 -35 -25z m171 -29 c0 -7 -3 -15 -7 -18 -5 -2 -2
-2 5 -1 6 2 12 -2 12 -8 0 -9 3 -9 12 0 19 19 38 14 38 -9 0 -12 -8 -23 -20
-26 -25 -7 -26 -21 -2 -39 16 -13 16 -15 -3 -29 -17 -13 -21 -14 -30 -2 -5 8
-15 12 -22 10 -6 -2 -13 4 -16 14 -4 14 -5 13 -6 -4 0 -13 -4 -23 -8 -24 -5 0
-27 -2 -50 -4 -25 -2 -43 0 -43 6 0 6 5 7 10 4 6 -3 10 -1 10 4 0 6 3 10 8 9
13 -5 54 30 50 43 -3 8 -9 7 -21 -5 -16 -16 -17 -16 -18 6 0 13 -2 19 -5 13
-5 -12 -185 -7 -199 6 -5 5 33 9 98 9 65 0 107 4 107 10 0 6 9 10 20 10 11 0
20 -6 20 -14 0 -22 32 -29 49 -11 15 15 15 16 0 10 -12 -4 -18 1 -23 20 -4 14
-4 30 -1 35 8 13 35 1 35 -15z m81 -175 c24 -19 24 -19 3 -20 -12 0 -32 9 -45
20 -24 19 -24 19 -3 20 12 0 32 -9 45 -20z"/>
<path d="M480 198 c0 -19 63 -48 103 -48 18 0 42 6 52 14 16 12 13 13 -33 8
-41 -3 -58 0 -86 18 -27 16 -36 18 -36 8z"/>
<path d="M1178 183 c17 -2 47 -2 65 0 17 2 3 4 -33 4 -36 0 -50 -2 -32 -4z"/>
</g>
</svg>
